PathFileType	4	(X/Y/Z)	66_2_80_p0_0-227_filt_butterworth.trc
DataRate	CameraRate	NumFrames	NumMarkers	Units	OrigDataRate	OrigDataStartFrame	OrigNumFrames
59.0	59.0	7	27	m	59.0	113	227
Frame#	Time	RHip			RKnee			RAnkle			RBigToe			RSmallToe			RHeel			LHip			LKnee			LAnkle			LBigToe			LSmallToe			LHeel			Neck			Head			Nose			RShoulder			RElbow			RWrist			RThumb			RIndex			RPinky			LShoulder			LElbow			LWrist			LThumb			LIndex			LPinky			
		X1	Y1	Z1	X2	Y2	Z2	X3	Y3	Z3	X4	Y4	Z4	X5	Y5	Z5	X6	Y6	Z6	X7	Y7	Z7	X8	Y8	Z8	X9	Y9	Z9	X10	Y10	Z10	X11	Y11	Z11	X12	Y12	Z12	X13	Y13	Z13	X14	Y14	Z14	X15	Y15	Z15	X16	Y16	Z16	X17	Y17	Z17	X18	Y18	Z18	X19	Y19	Z19	X20	Y20	Z20	X21	Y21	Z21	X22	Y22	Z22	X23	Y23	Z23	X24	Y24	Z24	X25	Y25	Z25	X26	Y26	Z26	X27	Y27	Z27	
113	1.915254237288136	0.5453404026180373	0.9245729197365015	0.8155348154311296	0.5339813170448993	1.0102165465414406	1.230452955566888	0.5205538018521868	1.1571492648153558	1.6286073585055914	0.4942651177066634	0.8857982710326469	1.650068208967202	0.5603512419407768	0.9346108001878992	1.6431479931232964	0.5021202242334871	1.2461953733016145	1.6839422165588314	0.33472687145139407	0.9296050547339695	0.8092804724910754	0.33207144253278287	1.0382021001669495	1.2325301901988759	0.3321756720034515	1.1391332301638684	1.5979352042104629	0.32719995126717594	0.913401709568765	1.6337400987611064	0.27704939379539967	0.9890088368361789	1.6340678538012001	0.3573130234378038	1.2408087065233977	1.6793602749838168	0.46323356437361685	0.7610073625465835	0.29495832335997535	0.4770382359406306	0.6487591439108188	0.07078252018241524	0.4851220467863016	0.5605247897178185	0.21120522064370711	0.596911668217699	0.7615490254445466	0.37458107408682	0.6504271471714516	0.8798680188435484	0.6358009278974145	0.62363822031754	0.8498565587136953	0.8720461571719218	0.56838706045881	0.7993312054495115	0.9719994693544901	0.5825162531867569	0.8218102711209976	1.000252485673077	0.6141945555334207	0.8699251012605773	0.9869697560014685	0.30887591286841104	0.8428180253526186	0.344778321040837	0.24805555214325342	0.9019906862125179	0.5950731085770598	0.22192208027546623	0.9041871018680266	0.8270737520907041	0.2678791807736815	0.8601927145598376	0.9242420699291383	0.24847792492610044	0.8559335407605481	0.9552418566334944	0.2049489491239205	0.9333512511787297	0.9567578466450382
114	1.9322033898305084	0.5453907065422232	0.9245114229507989	0.816579923361934	0.5344526996165855	1.0119186751722689	1.2314561509966147	0.5205588001397266	1.1573187285969857	1.6308279800667664	0.4936003359132011	0.8907028863490521	1.6520153088937664	0.5605585907690028	0.9378026517379041	1.6432804709106654	0.5022792225753969	1.246333968098055	1.6849371570896872	0.33479404827056	0.9294823455294275	0.8091532138096846	0.3320755418061263	1.0382448533997162	1.2325515698896343	0.33167671072411026	1.1393144894994855	1.6002055734887501	0.3281342016561347	0.91734988052116	1.6344334794368585	0.27705970415172254	0.9892711421273757	1.6342351142802674	0.35767138630541245	1.2414176563934596	1.6794687231024876	0.46426514441582367	0.7610430669626346	0.29495384108102657	0.47703429908720185	0.6489027072450488	0.07078484834123414	0.48443501910161096	0.5607783185359624	0.21178800789224683	0.5968336354305589	0.7615831211719044	0.37487708815330617	0.650413299011532	0.8797818161795148	0.6361230586623906	0.6236285470517445	0.8498608876645006	0.8720706001668678	0.5683613955974652	0.7994150202686221	0.972074838062009	0.5824139157415194	0.8219755563102784	1.000312897734776	0.6131872994946251	0.870296614614191	0.987098092503089	0.30892297938576496	0.8430692168245739	0.34512353575516513	0.248052436594483	0.901732751554185	0.5951305274086593	0.22243864022883195	0.9030764560561975	0.8269175571099807	0.2692500258813823	0.8563750062707601	0.9219313889784209	0.24856184211663268	0.8557276933367873	0.9547371629077951	0.20627844236752346	0.9293591053847324	0.9555002358245062
115	1.9491525423728813	0.545460494194656	0.9245030906988467	0.8169655171040098	0.5340577547206098	1.0168542381742516	1.2342049207502308	0.5200804254700266	1.157884245980102	1.634660110764945	0.4924259124591971	0.8974107196840113	1.65468406217175	0.5614996487740062	0.9396250266321978	1.6447110018941367	0.5024265774450173	1.2469968460091405	1.6868123001690039	0.3349289521031264	0.9296622919924318	0.8091443998528696	0.33207522694696545	1.038355033677162	1.2325963407167182	0.3316062446211617	1.1402827161706202	1.6032176459430243	0.3293618845744977	0.9224104321969286	1.6359511018902575	0.27709987223355437	0.9894799144918545	1.6343643963189036	0.35794361738108277	1.2421417973793556	1.679803053705884	0.4646458130531959	0.7610869543370449	0.2949443727556323	0.47700538043733004	0.6490886331242639	0.07082013823425827	0.48413119263661186	0.5607856088519327	0.21142227428060728	0.596742820728242	0.7617501685352756	0.37571248154905595	0.6505142988971127	0.880157617051809	0.6365719600830928	0.6236333050540613	0.8498816756300749	0.8720931811210461	0.5683619082951304	0.7994714642600927	0.9720918600876309	0.582372947527552	0.8222631381079084	1.0004001144280805	0.6128473864977724	0.8705617003499667	0.987187047919498	0.3089972210724937	0.8436706277519437	0.34596314161023367	0.24803098976463378	0.90221273911141	0.5956403608931825	0.22371244858904246	0.9002823255661978	0.8265546454611835	0.269718006439968	0.854780000199309	0.9200703900870193	0.24850967297392693	0.8556618770725181	0.9545980461918526	0.20699714299358565	0.9274204060229339	0.9542743093692008
116	1.9661016949152543	0.5455223282162415	0.924537977596609	0.816914723045911	0.5334124987216379	1.02282295841684	1.2371297003863604	0.5196855939329132	1.1585267579911833	1.6380595921254941	0.49146191604170386	0.9025826538543449	1.6567298680107518	0.5630303215348947	0.9402056836696556	1.646705814685939	0.5024807533965471	1.2478133081757279	1.6882114984724008	0.335118843439474	0.9304190304627897	0.8097605118436448	0.33206796428951124	1.0385386687430047	1.2326980197470363	0.3320119299354517	1.1412079920422638	1.6044169592930868	0.33029686171929584	0.9261814366084118	1.637908271917404	0.2771611825991274	0.9895448474665438	1.6344083796020201	0.3580315677559078	1.242459397999443	1.680671096902725	0.4646100009007185	0.7611230983645071	0.29495488057981606	0.4769454428875578	0.6492008086537525	0.07086653424053642	0.4840893535035881	0.5609313347293617	0.21013764292055534	0.596645377700776	0.7620229668583313	0.3770365350345114	0.6505501125339211	0.8805439422053374	0.6376233472637439	0.6236525318348106	0.8499189375770025	0.8721033769679088	0.5683709415223536	0.7995005048537573	0.9720174784751237	0.5823688888359938	0.8225834317958696	1.0004820893073	0.6128950752474009	0.8706698666803212	0.9872324796318	0.30907405766641544	0.844445085511242	0.3470718049004227	0.24804994276549663	0.9042025720649622	0.5968912102388311	0.22536397365616592	0.8966262573546556	0.8261893357439193	0.26955757056808494	0.8546334423839977	0.9193513761472474	0.24833893762154205	0.8556317010376798	0.9546869648260998	0.2072911668688211	0.9268159683826255	0.953021087695113
117	1.9830508474576272	0.5455422480995767	0.9245904796834677	0.8168780876531171	0.532967622245087	1.0268528796466163	1.2388787255273481	0.5195530620989661	1.1588897016226405	1.6396311579655722	0.49103805146529367	0.9054059053334191	1.6578143621641166	0.5643145560886045	0.940170898605441	1.6481667084956784	0.5024415958358716	1.248475687936804	1.6888033152157809	0.3352582224623391	0.9314726037702249	0.8114293364416804	0.33206651878916327	1.0387192796822633	1.2328513235722605	0.33246410100430107	1.1412901375942206	1.6030116888977768	0.3306544728425966	0.9276961373186792	1.639411996319683	0.2771919400611126	0.9894390304184292	1.6343606533129271	0.35796585872641395	1.2421847947629472	1.6818679548563518	0.4644870322760607	0.7611499782981291	0.2949870984291974	0.476868823053207	0.649047309104469	0.07073197942955634	0.4838469865697033	0.5611338288589615	0.20865739819852208	0.5965704212009577	0.7623296262227991	0.37878750994195126	0.650475071987906	0.8808343248185169	0.6390385977303357	0.6236735564211895	0.8498936856398798	0.8721042179075313	0.5683600917506986	0.7995002743212057	0.9720044296084898	0.5823580765652442	0.8227584457238233	1.0005126277043865	0.6129928186635075	0.8706609387431945	0.9872357653316938	0.3091242412458722	0.845011814353082	0.34801146267909894	0.24831860995072708	0.9080640857047086	0.5985159623143264	0.22670249728196923	0.8934166777604052	0.8261897595005308	0.26928906443626544	0.8549057716093441	0.9197430898569976	0.2481184640895828	0.8556442027393819	0.9551576396849906	0.20737891518227947	0.926660214861448	0.9521203923636329
118	2.0	0.5454744616615261	0.9246227737719575	0.8173069293184356	0.5327874659999593	1.0280648497696263	1.2392229394061753	0.5196051379401012	1.1589717564769324	1.6398222715949955	0.49114454890424397	0.907301327843945	1.6584976372615121	0.5645908643562824	0.9399381854254139	1.6485592178135964	0.5023711783853335	1.2487874512612809	1.6887553760003455	0.3352258879368063	0.9321187684828329	0.8136710723875903	0.33206303861922654	1.0387229951671582	1.232872016994309	0.33270487649566294	1.1408362708285062	1.6006839420511723	0.3306243727973984	0.9278847904204092	1.6400627568189392	0.27716383732982897	0.9892554795334149	1.6342704944827964	0.3576048013680703	1.2414571390561049	1.682169947015641	0.4644465324930069	0.7611699847941227	0.2949258933160763	0.47667859933003354	0.6484590210509155	0.06997372571393962	0.4830053737224147	0.5612452016812393	0.2078576664235628	0.5965286988013117	0.7626383061899652	0.381128569055331	0.6503209176739861	0.8810417373162657	0.6401155458185295	0.6236823819402987	0.8496998832342562	0.8721017486368099	0.5682826876248214	0.7995671066881149	0.9723855093426148	0.5823477979578766	0.8227919947885907	1.0005071448044147	0.6130223450311798	0.8705938636037549	0.9871701346852646	0.309158433101075	0.8452243657719782	0.3488607396718818	0.24912169080727076	0.912706611448447	0.5997132872796801	0.22771467404983908	0.8902289448619461	0.8265851906639453	0.26916871177137586	0.8551564933464826	0.9209740627470353	0.24795245332513466	0.8557936929872579	0.9561855468362433	0.20736492096881953	0.9266755631186869	0.9517723332138263
119	2.016949152542373	0.5453106668560477	0.9246004479840979	0.8184363542761129	0.5332054492726793	1.0282164706762578	1.2387129794885279	0.519765604881784	1.1589296621255767	1.6394975057427015	0.4917452032307274	0.909231094724579	1.659171198169254	0.5636009138756009	0.9397638812687327	1.6481082379531171	0.5023442952013152	1.2487567389548293	1.6879132860491068	0.3350407645444704	0.9319407525696102	0.8151343600895111	0.3319936052105691	1.0383480979447126	1.2323224439499212	0.33279750992271423	1.140485203096114	1.5991222787587096	0.33051388564851086	0.9277805596996633	1.640161837156347	0.277116117526163	0.9891213637789531	1.634198860587715	0.3566711727716845	1.2404514647514917	1.6804014722609641	0.46449738040569166	0.7611830190988637	0.29450562287783943	0.47600580816764704	0.6477582627259948	0.06820273380693101	0.4815227711778252	0.5612070686063719	0.2079261896203145	0.596519254333454	0.7628683574327528	0.3837207947628185	0.6501726467375459	0.8811096244271838	0.6406323500801422	0.6236747461311788	0.8493108348604532	0.8720988981337544	0.5681061720684932	0.7998299130307607	0.9734059661531096	0.582359663529697	0.822822863143193	1.0005412905584379	0.6130180766752203	0.870515733017666	0.9870361946488735	0.3092104801700539	0.8452413637861783	0.3500945380532888	0.25037169783483504	0.9160526435939116	0.6001268092090987	0.2289555324025957	0.8856926995459244	0.8269251695716343	0.26918530564235055	0.8552437567381872	0.9224945407175876	0.24787963747302408	0.8560436165957357	0.957499422285445	0.20742643533366	0.9268853271245444	0.9518057411324367
